inDegrees=yes
name=ik_lifting_orientations
DataType=double
version=3
OpenSimVersion=4.5-2024-01-10-34fd6af
endheader
time	pelvis_tilt	pelvis_list	pelvis_rotation	pelvis_tx	pelvis_ty	pelvis_tz	hip_flexion_r	hip_adduction_r	hip_rotation_r	knee_angle_r	knee_angle_r_beta	ankle_angle_r	subtalar_angle_r	mtp_angle_r	hip_flexion_l	hip_adduction_l	hip_rotation_l	knee_angle_l	knee_angle_l_beta	ankle_angle_l	subtalar_angle_l	mtp_angle_l	lumbar_extension	lumbar_bending	lumbar_rotation	arm_flex_r	arm_add_r	arm_rot_r	elbow_flex_r	pro_sup_r	wrist_flex_r	wrist_dev_r	arm_flex_l	arm_add_l	arm_rot_l	elbow_flex_l	pro_sup_l	wrist_flex_l	wrist_dev_l
0.02	0.005923840364273369	0.007342154471156256	-90.00298587826208	0	0.9399999998679526	0	44.03652875261969	-17.0022815095957	0	59.49352059733688	1.038357818026592	-9.211417444882365	0	0	44.03652875261969	-17.0022815095957	0	59.49352059733688	1.038357818026592	-9.211417444882365	0	0	0.007648504502290823	-0.009491899659177808	0.001501425693415902	-0.1900418901631364	-0.03443440788080141	-0.004788749724706763	0.3978117899420124	4.930042271782074	0	0	0	-7.264844636909575	0	85.15717023281177	4.930042271782074	0	0
0.03	0.01807491686276824	-0.07037315601628399	-90.06435869400545	0	0.9399999998679526	0	44.0366197081095	-16.99991142244462	0	59.49355827624017	1.038358475647513	-9.209589598658887	0	0	44.0366197081095	-16.99991142244462	0	59.49355827624017	1.038358475647513	-9.209589598658887	0	0	-0.003966925805860261	-0.04615793941846051	-0.0153110977060871	-0.3633128611496635	-0.3192005878040645	-0.02128900519510953	0.4247464897158003	4.929717090005741	0	5.38806921148701e-36	0	-7.265221423053664	0	85.15748961844547	4.929717090005741	0	5.38806921148701e-36
0.04	-0.0002777490970374018	-0.05831310866455177	-90.06848374801913	0	0.9399999998679526	0	44.03688284096951	-16.99301601139528	0	59.49366677968452	1.038360369389867	-9.204267288679752	0	0	44.03688284096951	-16.99301601139528	0	59.49366677968452	1.038360369389867	-9.204267288679752	0	0	0.1291360565695723	0.01112149305319581	-0.1371163305212402	-0.6038124817091877	-0.7173503531408983	0.1757326944349124	0.386157924562631	4.928777957688196	0	0	0	-7.266307990903008	0	85.15841201046111	4.928777957688196	0	0
0.05	-0.0001206039948554658	-0.1284257854727925	-89.94614029675266	0	0.9399999998679526	0	44.03710587836538	-16.98718223396415	0	59.49375883011012	1.038361975972871	-9.199766392455894	0	0	44.03710587836538	-16.98718223396415	0	59.49375883011012	1.038361975972871	-9.199766392455894	0	0	0.2478090910499228	0.008086219856376208	-0.3136839052970034	-0.8638060603971116	-0.9832371130183097	0.188868986720549	0.2887144377128109	4.927981616888147	0	0	0	-7.267229635323321	0	85.15919415644288	4.927981616888147	0	0
0.06	-0.001088949498442578	-0.248236951419511	-90.01372651368516	0	0.9399999998679526	0	44.03732710673613	-16.98141454893161	0	59.49385031578647	1.038363572699142	-9.195319362080374	0	0	44.03732710673613	-16.98141454893161	0	59.49385031578647	1.038363572699142	-9.195319362080374	0	0	0.4307608928755418	0.02086150963987933	-0.4288036505336872	-1.215465849772118	-1.256972559954766	0.3664568820998139	0.2245149695878884	4.927191094801444	0	0	0	-7.268145158993051	0	85.15997058780272	4.927191094801444	0	0
0.07000000000000001	-0.009767648351892377	-0.3227223658604269	-90.00805357686077	0	0.9399999998679526	0	44.03764099295071	-16.97320698392488	0	59.49397976136476	1.038365831950685	-9.188988866483793	0	0	44.03764099295071	-16.97320698392488	0	59.49397976136476	1.038365831950685	-9.188988866483793	0	0	0.9314151075826328	0.05536490146353971	-0.8178140107294415	-1.809368559437161	-1.710737375374008	0.5407966882735032	0.1550011870086765	4.926070585141191	0	0	0	-7.269441734765297	0	85.1610711242286	4.926070585141191	0	0
0.08	0.005077601991793563	-0.4414187380058593	-90.00796737457829	0	0.9399999998679526	0	44.03786108356525	-16.9674579992637	0	59.49407054984744	1.038367416508631	-9.184555999484072	0	0	44.03786108356525	-16.9674579992637	0	59.49407054984744	1.038367416508631	-9.184555999484072	0	0	1.127474924100183	0.06278102598794835	-1.06404100646822	-2.107523454840563	-2.053041525217229	0.5410876922849194	0.1266556570806061	4.925284782189601	0	0	0	-7.270351115184545	0	85.16184292021697	4.925284782189601	0	0
0.09	-0.008558005969388884	-0.5771812900910133	-90.06586314155351	0	0.9399999998679526	0	44.03813646626728	-16.96027281927749	0	59.49418419341908	1.03836939996313	-9.179017335273532	0	0	44.03813646626728	-16.96027281927749	0	59.49418419341908	1.03836939996313	-9.179017335273532	0	0	1.990416646681717	0.07925562508240665	-1.128578354556258	-3.046578631108791	-2.621970638665787	0.1419310990493384	0.1009122038422493	4.924301361220472	0	0	0	-7.271489376467446	0	85.1628088118042	4.924301361220472	0	0
0.1	-0.004703061941854386	-0.7516324930615271	-90.12317341781586	0	0.9399999998679526	0	44.03836479246121	-16.95432941016231	0	59.49427853830866	1.038371046592085	-9.174438210823538	0	0	44.03836479246121	-16.95432941016231	0	59.49427853830866	1.038371046592085	-9.174438210823538	0	0	2.308093360024818	0.08545811397021194	-1.202023777513122	-3.419653389146895	-2.852875620309316	0.02763131688764377	0.08759678473617695	4.923485540902572	0	0	0	-7.272434066709387	0	85.16361009046683	4.923485540902572	0	0
0.11	-0.0183784976324095	-1.183140844844078	-90.25096443937298	0	0.9399999998679526	0	44.03860425572614	-16.94810140180795	0	59.49437751368563	1.038372774038292	-9.169640890400801	0	0	44.03860425572614	-16.94810140180795	0	59.49437751368563	1.038372774038292	-9.169640890400801	0	0	2.30976064822439	0.1045531046655535	-1.131033655430242	-3.478876730133059	-2.939930708990441	-0.1945865140160972	0.06729089849707806	4.922629794127249	0	0	0	-7.2734251115007	0	85.16445058400167	4.922629794127249	0	0
0.12	-0.0219202229274655	-1.498530818720596	-90.30140845471826	0	0.9399999998679526	0	44.03877873739366	-16.94356931228655	0	59.49444966575214	1.038374033329415	-9.166151069348146	0	0	44.03877873739366	-16.94356931228655	0	59.49444966575214	1.038374033329415	-9.166151069348146	0	0	2.325051545341811	0.1011418160189315	-1.153017017353184	-3.666431013252262	-3.119380952642777	-0.5476589373069783	0.05761970659819819	4.922006118004511	0	0	0	-7.274147524573608	0	85.16506314351096	4.922006118004511	0	0
0.13	-0.02883808390313582	-1.828999048182287	-90.30492013839162	0	0.9399999998679526	0	44.03899192130791	-16.93803719039602	0	59.49453785423842	1.038375572508863	-9.161892222031218	0	0	44.03899192130791	-16.93803719039602	0	59.49453785423842	1.038375572508863	-9.161892222031218	0	0	2.601997865297977	0.1100758634925708	-1.20872160656741	-4.062448037207704	-3.324127795497304	-0.7954571699235706	0.05144231402396755	4.921243964856144	0	0	0	-7.275030462530127	0	85.16581171187045	4.921243964856144	0	0
0.14	-0.04120557756828662	-1.96938184512728	-90.38508604754918	0	0.9399999998679526	0	44.03925551599611	-16.93118790137621	0	59.49464673360362	1.038377472812273	-9.156618871249702	0	0	44.03925551599611	-16.93118790137621	0	59.49464673360362	1.038377472812273	-9.156618871249702	0	0	3.167225887638018	0.1220616537288104	-1.062528470328684	-4.500670427650998	-3.418245061193494	-1.177368847321627	0.04458098123645671	4.920302073190347	0	0	0	-7.276121125289825	0	85.16673681478117	4.920302073190347	0	0
0.15	-0.05000079761366444	-2.383427560908109	-90.44298218302224	0	0.9399999998679526	0	44.03948682103714	-16.92521170450909	0	59.49474264930768	1.038379146857113	-9.152022447201457	0	0	44.03948682103714	-16.92521170450909	0	59.49474264930768	1.038379146857113	-9.152022447201457	0	0	3.362732954637445	0.1258228592852427	-0.8947489607926803	-5.024956463956975	-3.656801922641081	-1.528396370202735	0.04167884497836111	4.919474288266178	0	0	0	-7.27708089983169	0	85.16754984558104	4.919474288266178	0	0
0.16	-0.06685095218261623	-2.877574173338414	-90.39123265435262	0	0.9399999998679526	0	44.03975883065009	-16.91814994117932	0	59.49485495669666	1.038381106990825	-9.146587739561323	0	0	44.03975883065009	-16.91814994117932	0	59.49485495669666	1.038381106990825	-9.146587739561323	0	0	1.942000285102963	0.1402707280740916	-0.6767381406132671	-3.99063244582615	-4.073758475809274	-1.876723410854497	0.03860806327085473	4.918502370523094	0	0	0	-7.278206240313281	0	85.16850443936401	4.918502370523094	0	0
